<?xml version="1.0" encoding="UTF-8"?>
<svg id="Layer_1" data-name="Layer 1" xmlns="http://www.w3.org/2000/svg" viewBox="0 0 127.45 127.45">
  <g shape-rendering="crispEdges">
  <defs>
    <style>
      .cls-1 {
        fill: #122146;
      }

      .cls-2 {
        fill: #eddcd4;
      }

      .cls-3 {
        fill: #f283b4;
      }

      .cls-4 {
        fill: #fcc6a8;
      }

      .cls-5 {
        fill: #28a4a6;
      }

      .cls-6 {
        fill: #aa8674;
      }
    </style>
  </defs>
  <rect class="cls-5" x="117.65" y="107.84" width="9.8" height="9.81"/>
  <rect class="cls-5" x="117.65" y="98.04" width="9.8" height="9.8"/>
  <rect class="cls-5" x="117.65" y="88.24" width="9.8" height="9.8"/>
  <rect class="cls-5" x="117.65" y="78.43" width="9.8" height="9.81"/>
  <rect class="cls-5" x="117.65" y="68.63" width="9.8" height="9.8"/>
  <rect class="cls-5" x="117.65" y="58.82" width="9.8" height="9.81"/>
  <rect class="cls-5" x="117.65" y="49.02" width="9.8" height="9.8"/>
  <rect class="cls-5" x="117.65" y="39.22" width="9.8" height="9.8"/>
  <rect class="cls-5" x="117.65" y="29.41" width="9.8" height="9.81"/>
  <rect class="cls-5" x="117.65" y="19.61" width="9.8" height="9.8"/>
  <rect class="cls-5" x="117.65" y="9.8" width="9.8" height="9.81"/>
  <rect class="cls-5" x="117.65" width="9.8" height="9.8"/>
  <rect class="cls-5" x="107.84" y="117.65" width="9.81" height="9.8"/>
  <rect class="cls-5" x="107.84" y="107.84" width="9.81" height="9.81"/>
  <rect class="cls-5" x="107.84" y="98.04" width="9.81" height="9.8"/>
  <rect class="cls-5" x="107.84" y="88.24" width="9.81" height="9.8"/>
  <rect class="cls-5" x="107.84" y="78.43" width="9.81" height="9.81"/>
  <rect class="cls-5" x="107.84" y="68.63" width="9.81" height="9.8"/>
  <rect class="cls-5" x="107.84" y="58.82" width="9.81" height="9.81"/>
  <rect class="cls-6" x="107.84" y="49.02" width="9.81" height="9.8"/>
  <rect class="cls-6" x="107.84" y="39.22" width="9.81" height="9.8"/>
  <rect class="cls-5" x="107.84" y="29.41" width="9.81" height="9.81"/>
  <rect class="cls-5" x="107.84" y="19.61" width="9.81" height="9.8"/>
  <rect class="cls-5" x="107.84" y="9.8" width="9.81" height="9.81"/>
  <rect class="cls-5" x="107.84" width="9.81" height="9.8"/>
  <rect class="cls-2" x="98.04" y="117.65" width="9.8" height="9.8"/>
  <rect class="cls-2" x="98.04" y="107.84" width="9.8" height="9.81"/>
  <rect class="cls-2" x="98.04" y="98.04" width="9.8" height="9.8"/>
  <rect class="cls-2" x="98.04" y="88.24" width="9.8" height="9.8"/>
  <rect class="cls-2" x="98.04" y="78.43" width="9.8" height="9.81"/>
  <rect class="cls-2" x="98.04" y="68.63" width="9.8" height="9.8"/>
  <rect class="cls-4" x="98.04" y="58.82" width="9.8" height="9.81"/>
  <rect class="cls-4" x="98.04" y="49.02" width="9.8" height="9.8"/>
  <rect class="cls-4" x="98.04" y="39.22" width="9.8" height="9.8"/>
  <rect class="cls-4" x="98.04" y="29.41" width="9.8" height="9.81"/>
  <rect class="cls-2" x="98.04" y="19.61" width="9.8" height="9.8"/>
  <rect class="cls-2" x="98.04" y="9.8" width="9.8" height="9.81"/>
  <rect class="cls-5" x="98.04" width="9.8" height="9.8"/>
  <rect class="cls-3" x="88.24" y="117.65" width="9.8" height="9.8"/>
  <rect class="cls-2" x="88.24" y="107.84" width="9.8" height="9.81"/>
  <rect class="cls-2" x="88.24" y="98.04" width="9.8" height="9.8"/>
  <rect class="cls-2" x="88.24" y="88.24" width="9.8" height="9.8"/>
  <rect class="cls-2" x="88.24" y="78.43" width="9.8" height="9.81"/>
  <rect class="cls-4" x="88.24" y="68.63" width="9.8" height="9.8"/>
  <rect class="cls-4" x="88.24" y="58.82" width="9.8" height="9.81"/>
  <rect class="cls-4" x="88.24" y="49.02" width="9.8" height="9.8"/>
  <rect class="cls-4" x="88.24" y="39.22" width="9.8" height="9.8"/>
  <rect class="cls-4" x="88.24" y="29.41" width="9.8" height="9.81"/>
  <rect class="cls-4" x="88.24" y="19.61" width="9.8" height="9.8"/>
  <rect class="cls-2" x="88.24" y="9.8" width="9.8" height="9.81"/>
  <rect class="cls-2" x="88.24" width="9.8" height="9.8"/>
  <rect class="cls-3" x="78.43" y="117.65" width="9.81" height="9.8"/>
  <rect class="cls-3" x="78.43" y="107.84" width="9.81" height="9.81"/>
  <rect class="cls-3" x="78.43" y="98.04" width="9.81" height="9.8"/>
  <rect class="cls-2" x="78.43" y="88.24" width="9.81" height="9.8"/>
  <rect class="cls-4" x="78.43" y="78.43" width="9.81" height="9.81"/>
  <rect class="cls-4" x="78.43" y="68.63" width="9.81" height="9.8"/>
  <rect class="cls-4" x="78.43" y="58.82" width="9.81" height="9.81"/>
  <rect class="cls-1" x="78.43" y="49.02" width="9.81" height="9.8"/>
  <rect class="cls-1" x="78.43" y="39.22" width="9.81" height="9.8"/>
  <rect class="cls-4" x="78.43" y="29.41" width="9.81" height="9.81"/>
  <rect class="cls-4" x="78.43" y="19.61" width="9.81" height="9.8"/>
  <rect class="cls-2" x="78.43" y="9.8" width="9.81" height="9.81"/>
  <rect class="cls-2" x="78.43" width="9.81" height="9.8"/>
  <rect class="cls-3" x="68.63" y="117.65" width="9.8" height="9.8"/>
  <rect class="cls-3" x="68.63" y="107.84" width="9.8" height="9.81"/>
  <rect class="cls-4" x="68.63" y="98.04" width="9.8" height="9.8"/>
  <rect class="cls-4" x="68.63" y="88.24" width="9.8" height="9.8"/>
  <rect class="cls-4" x="68.63" y="78.43" width="9.8" height="9.81"/>
  <rect class="cls-4" x="68.63" y="68.63" width="9.8" height="9.8"/>
  <rect class="cls-4" x="68.63" y="58.82" width="9.8" height="9.81"/>
  <rect class="cls-4" x="68.63" y="49.02" width="9.8" height="9.8"/>
  <rect class="cls-4" x="68.63" y="39.22" width="9.8" height="9.8"/>
  <rect class="cls-4" x="68.63" y="29.41" width="9.8" height="9.81"/>
  <rect class="cls-4" x="68.63" y="19.61" width="9.8" height="9.8"/>
  <rect class="cls-2" x="68.63" y="9.8" width="9.8" height="9.81"/>
  <rect class="cls-2" x="68.63" width="9.8" height="9.8"/>
  <rect class="cls-3" x="58.82" y="117.65" width="9.81" height="9.8"/>
  <rect class="cls-3" x="58.82" y="107.84" width="9.81" height="9.81"/>
  <rect class="cls-4" x="58.82" y="98.04" width="9.81" height="9.8"/>
  <rect class="cls-4" x="58.82" y="88.24" width="9.81" height="9.8"/>
  <rect class="cls-4" x="58.82" y="78.43" width="9.81" height="9.81"/>
  <rect class="cls-4" x="58.82" y="68.63" width="9.81" height="9.8"/>
  <rect class="cls-6" x="58.82" y="58.82" width="9.81" height="9.81"/>
  <rect class="cls-4" x="58.82" y="49.02" width="9.81" height="9.8"/>
  <rect class="cls-4" x="58.82" y="39.22" width="9.81" height="9.8"/>
  <rect class="cls-4" x="58.82" y="29.41" width="9.81" height="9.81"/>
  <rect class="cls-4" x="58.82" y="19.61" width="9.81" height="9.8"/>
  <rect class="cls-2" x="58.82" y="9.8" width="9.81" height="9.81"/>
  <rect class="cls-2" x="58.82" width="9.81" height="9.8"/>
  <rect class="cls-3" x="49.02" y="117.65" width="9.8" height="9.8"/>
  <rect class="cls-3" x="49.02" y="107.84" width="9.8" height="9.81"/>
  <rect class="cls-4" x="49.02" y="98.04" width="9.8" height="9.8"/>
  <rect class="cls-4" x="49.02" y="88.24" width="9.8" height="9.8"/>
  <rect class="cls-4" x="49.02" y="78.43" width="9.8" height="9.81"/>
  <rect class="cls-4" x="49.02" y="68.63" width="9.8" height="9.8"/>
  <rect class="cls-4" x="49.02" y="58.82" width="9.8" height="9.81"/>
  <rect class="cls-4" x="49.02" y="49.02" width="9.8" height="9.8"/>
  <rect class="cls-4" x="49.02" y="39.22" width="9.8" height="9.8"/>
  <rect class="cls-4" x="49.02" y="29.41" width="9.8" height="9.81"/>
  <rect class="cls-4" x="49.02" y="19.61" width="9.8" height="9.8"/>
  <rect class="cls-2" x="49.02" y="9.8" width="9.8" height="9.81"/>
  <rect class="cls-2" x="49.02" width="9.8" height="9.8"/>
  <rect class="cls-3" x="39.22" y="117.65" width="9.8" height="9.8"/>
  <rect class="cls-3" x="39.22" y="107.84" width="9.8" height="9.81"/>
  <rect class="cls-3" x="39.22" y="98.04" width="9.8" height="9.8"/>
  <rect class="cls-2" x="39.22" y="88.24" width="9.8" height="9.8"/>
  <rect class="cls-4" x="39.22" y="78.43" width="9.8" height="9.81"/>
  <rect class="cls-4" x="39.22" y="68.63" width="9.8" height="9.8"/>
  <rect class="cls-4" x="39.22" y="58.82" width="9.8" height="9.81"/>
  <rect class="cls-1" x="39.22" y="49.02" width="9.8" height="9.8"/>
  <rect class="cls-1" x="39.22" y="39.22" width="9.8" height="9.8"/>
  <rect class="cls-4" x="39.22" y="29.41" width="9.8" height="9.81"/>
  <rect class="cls-4" x="39.22" y="19.61" width="9.8" height="9.8"/>
  <rect class="cls-2" x="39.22" y="9.8" width="9.8" height="9.81"/>
  <rect class="cls-2" x="39.22" width="9.8" height="9.8"/>
  <rect class="cls-3" x="29.41" y="117.65" width="9.81" height="9.8"/>
  <rect class="cls-2" x="29.41" y="107.84" width="9.81" height="9.81"/>
  <rect class="cls-2" x="29.41" y="98.04" width="9.81" height="9.8"/>
  <rect class="cls-2" x="29.41" y="88.24" width="9.81" height="9.8"/>
  <rect class="cls-2" x="29.41" y="78.43" width="9.81" height="9.81"/>
  <rect class="cls-4" x="29.41" y="68.63" width="9.81" height="9.8"/>
  <rect class="cls-4" x="29.41" y="58.82" width="9.81" height="9.81"/>
  <rect class="cls-4" x="29.41" y="49.02" width="9.81" height="9.8"/>
  <rect class="cls-4" x="29.41" y="39.22" width="9.81" height="9.8"/>
  <rect class="cls-4" x="29.41" y="29.41" width="9.81" height="9.81"/>
  <rect class="cls-4" x="29.41" y="19.61" width="9.81" height="9.8"/>
  <rect class="cls-2" x="29.41" y="9.8" width="9.81" height="9.81"/>
  <rect class="cls-2" x="29.41" width="9.81" height="9.8"/>
  <rect class="cls-2" x="19.61" y="117.65" width="9.8" height="9.8"/>
  <rect class="cls-2" x="19.61" y="107.84" width="9.8" height="9.81"/>
  <rect class="cls-2" x="19.61" y="98.04" width="9.8" height="9.8"/>
  <rect class="cls-2" x="19.61" y="88.24" width="9.8" height="9.8"/>
  <rect class="cls-2" x="19.61" y="78.43" width="9.8" height="9.81"/>
  <rect class="cls-2" x="19.61" y="68.63" width="9.8" height="9.8"/>
  <rect class="cls-4" x="19.61" y="58.82" width="9.8" height="9.81"/>
  <rect class="cls-4" x="19.61" y="49.02" width="9.8" height="9.8"/>
  <rect class="cls-4" x="19.61" y="39.22" width="9.8" height="9.8"/>
  <rect class="cls-4" x="19.61" y="29.41" width="9.8" height="9.81"/>
  <rect class="cls-2" x="19.61" y="19.61" width="9.8" height="9.8"/>
  <rect class="cls-2" x="19.61" y="9.8" width="9.8" height="9.81"/>
  <rect class="cls-5" x="19.61" width="9.8" height="9.8"/>
  <rect class="cls-5" x="9.8" y="117.65" width="9.81" height="9.8"/>
  <rect class="cls-5" x="9.8" y="107.84" width="9.81" height="9.81"/>
  <rect class="cls-5" x="9.8" y="98.04" width="9.81" height="9.8"/>
  <rect class="cls-5" x="9.8" y="88.24" width="9.81" height="9.8"/>
  <rect class="cls-5" x="9.8" y="78.43" width="9.81" height="9.81"/>
  <rect class="cls-5" x="9.8" y="68.63" width="9.81" height="9.8"/>
  <rect class="cls-5" x="9.8" y="58.82" width="9.81" height="9.81"/>
  <rect class="cls-6" x="9.8" y="49.02" width="9.81" height="9.8"/>
  <rect class="cls-6" x="9.8" y="39.22" width="9.81" height="9.8"/>
  <rect class="cls-5" x="9.8" y="29.41" width="9.81" height="9.81"/>
  <rect class="cls-5" x="9.8" y="19.61" width="9.81" height="9.8"/>
  <rect class="cls-5" x="9.8" y="9.8" width="9.81" height="9.81"/>
  <rect class="cls-5" x="9.8" width="9.81" height="9.8"/>
  <rect class="cls-5" y="117.65" width="9.8" height="9.8"/>
  <rect class="cls-5" y="107.84" width="9.8" height="9.81"/>
  <rect class="cls-5" y="98.04" width="9.8" height="9.8"/>
  <rect class="cls-5" y="88.24" width="9.8" height="9.8"/>
  <rect class="cls-5" y="78.43" width="9.8" height="9.81"/>
  <rect class="cls-5" y="68.63" width="9.8" height="9.8"/>
  <rect class="cls-5" y="58.82" width="9.8" height="9.81"/>
  <rect class="cls-5" y="49.02" width="9.8" height="9.8"/>
  <rect class="cls-5" y="39.22" width="9.8" height="9.8"/>
  <rect class="cls-5" y="29.41" width="9.8" height="9.81"/>
  <rect class="cls-5" y="19.61" width="9.8" height="9.8"/>
  <rect class="cls-5" y="9.8" width="9.8" height="9.81"/>
  </g>
</svg>