<?xml version="1.0" encoding="UTF-8" standalone="no"?>
<!-- Created with Inkscape (http://www.inkscape.org/) -->

<svg
   version="1.1"
   id="svg9268"
   width="169.94666"
   height="169.93333"
   viewBox="0 0 169.94666 169.93334"
   sodipodi:docname="female-gender-icon.svg"
   inkscape:version="1.2.1 (9c6d41e410, 2022-07-14)"
   xmlns:inkscape="http://www.inkscape.org/namespaces/inkscape"
   xmlns:sodipodi="http://sodipodi.sourceforge.net/DTD/sodipodi-0.dtd"
   xmlns="http://www.w3.org/2000/svg"
   xmlns:svg="http://www.w3.org/2000/svg">
  <defs
     id="defs9272" />
  <sodipodi:namedview
     id="namedview9270"
     pagecolor="#ffffff"
     bordercolor="#000000"
     borderopacity="0.25"
     inkscape:showpageshadow="2"
     inkscape:pageopacity="0.0"
     inkscape:pagecheckerboard="0"
     inkscape:deskcolor="#d1d1d1"
     showgrid="false"
     inkscape:zoom="1.5405"
     inkscape:cx="84.388188"
     inkscape:cy="58.422592"
     inkscape:window-width="2560"
     inkscape:window-height="1334"
     inkscape:window-x="-11"
     inkscape:window-y="-11"
     inkscape:window-maximized="1"
     inkscape:current-layer="g9276">
    <inkscape:page
       x="0"
       y="0"
       id="page9274"
       width="169.94666"
       height="169.93333" />
  </sodipodi:namedview>
  <g shape-rendering="crispEdges"
     id="g9276"
     inkscape:groupmode="layer"
     inkscape:label="Page 1"
     transform="matrix(1.3333333,0,0,-1.3333333,-248.35999,392.15999)">
    <path
       d="m 303.92,176.47 h 9.81 v 9.8 h -9.81 z"
       style="fill:#f361b8;fill-opacity:1;fill-rule:nonzero;stroke:none"
       id="path9278" />
    <path
       d="m 303.92,186.27 h 9.81 v 9.81 h -9.81 z"
       style="fill:#f361b8;fill-opacity:1;fill-rule:nonzero;stroke:none"
       id="path9280" />
    <path
       d="m 303.92,196.08 h 9.81 v 9.8 h -9.81 z"
       style="fill:#f361b8;fill-opacity:1;fill-rule:nonzero;stroke:none"
       id="path9282" />
    <path
       d="m 303.92,205.88 h 9.81 v 9.81 h -9.81 z"
       style="fill:#f361b8;fill-opacity:1;fill-rule:nonzero;stroke:none"
       id="path9284" />
    <path
       d="m 303.92,215.69 h 9.81 v 9.8 h -9.81 z"
       style="fill:#f361b8;fill-opacity:1;fill-rule:nonzero;stroke:none"
       id="path9286" />
    <path
       d="m 303.92,225.49 h 9.81 v 9.8 h -9.81 z"
       style="fill:#f361b8;fill-opacity:1;fill-rule:nonzero;stroke:none"
       id="path9288" />
    <path
       d="m 303.92,235.29 h 9.81 v 9.81 h -9.81 z"
       style="fill:#f361b8;fill-opacity:1;fill-rule:nonzero;stroke:none"
       id="path9290" />
    <path
       d="m 303.92,245.1 h 9.81 v 9.8 h -9.81 z"
       style="fill:#f361b8;fill-opacity:1;fill-rule:nonzero;stroke:none"
       id="path9292" />
    <path
       d="m 303.92,254.9 h 9.81 v 9.81 h -9.81 z"
       style="fill:#f361b8;fill-opacity:1;fill-rule:nonzero;stroke:none"
       id="path9294" />
    <path
       d="m 303.92,264.71 h 9.81 v 9.8 h -9.81 z"
       style="fill:#f361b8;fill-opacity:1;fill-rule:nonzero;stroke:none"
       id="path9296" />
    <path
       d="m 303.92,274.51 h 9.81 v 9.8 h -9.81 z"
       style="fill:#f361b8;fill-opacity:1;fill-rule:nonzero;stroke:none"
       id="path9298" />
    <path
       d="m 303.92,284.31 h 9.81 v 9.81 h -9.81 z"
       style="fill:#f361b8;fill-opacity:1;fill-rule:nonzero;stroke:none"
       id="path9300" />
    <path
       d="m 294.12,166.67 h 9.8 v 9.8 h -9.8 z"
       style="fill:#f361b8;fill-opacity:1;fill-rule:nonzero;stroke:none"
       id="path9302" />
    <path
       d="m 294.12,176.47 h 9.8 v 9.8 h -9.8 z"
       style="fill:#f361b8;fill-opacity:1;fill-rule:nonzero;stroke:none"
       id="path9304" />
    <path
       d="m 294.12,186.27 h 9.8 v 9.81 h -9.8 z"
       style="fill:#f361b8;fill-opacity:1;fill-rule:nonzero;stroke:none"
       id="path9306" />
    <path
       d="m 294.12,196.08 h 9.8 v 9.8 h -9.8 z"
       style="fill:#f361b8;fill-opacity:1;fill-rule:nonzero;stroke:none"
       id="path9308" />
    <path
       d="m 294.12,205.88 h 9.8 v 9.81 h -9.8 z"
       style="fill:#f361b8;fill-opacity:1;fill-rule:nonzero;stroke:none"
       id="path9310" />
    <path
       d="m 294.12,215.69 h 9.8 v 9.8 h -9.8 z"
       style="fill:#f361b8;fill-opacity:1;fill-rule:nonzero;stroke:none"
       id="path9312" />
    <path
       d="m 294.12,225.49 h 9.8 v 9.8 h -9.8 z"
       style="fill:#f361b8;fill-opacity:1;fill-rule:nonzero;stroke:none"
       id="path9314" />
    <path
       d="m 294.12,235.29 h 9.8 v 9.81 h -9.8 z"
       style="fill:#f361b8;fill-opacity:1;fill-rule:nonzero;stroke:none"
       id="path9316" />
    <path
       d="m 294.12,245.1 h 9.8 v 9.8 h -9.8 z"
       style="fill:#f361b8;fill-opacity:1;fill-rule:nonzero;stroke:none"
       id="path9318" />
    <path
       d="m 294.12,254.9 h 9.8 v 9.81 h -9.8 z"
       style="fill:#f361b8;fill-opacity:1;fill-rule:nonzero;stroke:none"
       id="path9320" />
    <path
       d="m 294.12,264.71 h 9.8 v 9.8 h -9.8 z"
       style="fill:#f361b8;fill-opacity:1;fill-rule:nonzero;stroke:none"
       id="path9322" />
    <path
       d="m 294.12,274.51 h 9.8 v 9.8 h -9.8 z"
       style="fill:#f361b8;fill-opacity:1;fill-rule:nonzero;stroke:none"
       id="path9324" />
    <path
       d="m 294.12,284.31 h 9.8 v 9.81 h -9.8 z"
       style="fill:#f361b8;fill-opacity:1;fill-rule:nonzero;stroke:none"
       id="path9326" />
    <path
       d="m 284.31,166.67 h 9.81 v 9.8 h -9.81 z"
       style="fill:#f361b8;fill-opacity:1;fill-rule:nonzero;stroke:none"
       id="path9328" />
    <path
       d="m 284.31,176.47 h 9.81 v 9.8 h -9.81 z"
       style="fill:#f361b8;fill-opacity:1;fill-rule:nonzero;stroke:none"
       id="path9330" />
    <path
       d="m 284.31,186.27 h 9.81 v 9.81 h -9.81 z"
       style="fill:#f361b8;fill-opacity:1;fill-rule:nonzero;stroke:none"
       id="path9332" />
    <path
       d="m 284.31,196.08 h 9.81 v 9.8 h -9.81 z"
       style="fill:#f361b8;fill-opacity:1;fill-rule:nonzero;stroke:none"
       id="path9334" />
    <path
       d="m 284.31,205.88 h 9.81 v 9.81 h -9.81 z"
       style="fill:#f361b8;fill-opacity:1;fill-rule:nonzero;stroke:none"
       id="path9336" />
    <path
       d="m 284.31,215.69 h 9.81 v 9.8 h -9.81 z"
       style="fill:#f361b8;fill-opacity:1;fill-rule:nonzero;stroke:none"
       id="path9338" />
    <path
       d="m 284.31,225.49 h 9.81 v 9.8 h -9.81 z"
       style="fill:#f361b8;fill-opacity:1;fill-rule:nonzero;stroke:none"
       id="path9340" />
    <path
       d="m 284.31,235.29 h 9.81 v 9.81 h -9.81 z"
       style="fill:#f361b8;fill-opacity:1;fill-rule:nonzero;stroke:none"
       id="path9342" />
    <path
       d="m 284.31,245.1 h 9.81 v 9.8 h -9.81 z"
       style="fill:#f361b8;fill-opacity:1;fill-rule:nonzero;stroke:none"
       id="path9344" />
    <path
       d="m 284.31,254.9 h 9.81 v 9.81 h -9.81 z"
       style="fill:#f361b8;fill-opacity:1;fill-rule:nonzero;stroke:none"
       id="path9346" />
    <path
       d="m 284.31,264.71 h 9.81 v 9.8 h -9.81 z"
       style="fill:#f361b8;fill-opacity:1;fill-rule:nonzero;stroke:none"
       id="path9348" />
    <path
       d="m 284.31,274.51 h 9.81 v 9.8 h -9.81 z"
       style="fill:#f361b8;fill-opacity:1;fill-rule:nonzero;stroke:none"
       id="path9350" />
    <path
       d="m 284.31,284.31 h 9.81 v 9.81 h -9.81 z"
       style="fill:#f361b8;fill-opacity:1;fill-rule:nonzero;stroke:none"
       id="path9352" />
    <path
       d="m 274.51,166.67 h 9.8 v 9.8 h -9.8 z"
       style="fill:#f361b8;fill-opacity:1;fill-rule:nonzero;stroke:none"
       id="path9354" />
    <path
       d="m 274.51,176.47 h 9.8 v 9.8 h -9.8 z"
       style="fill:#f361b8;fill-opacity:1;fill-rule:nonzero;stroke:none"
       id="path9356" />
    <path
       d="m 274.51,186.27 h 9.8 v 9.81 h -9.8 z"
       style="fill:#f361b8;fill-opacity:1;fill-rule:nonzero;stroke:none"
       id="path9358" />
    <path
       d="m 274.51,196.08 h 9.8 v 9.8 h -9.8 z"
       style="fill:#f361b8;fill-opacity:1;fill-rule:nonzero;stroke:none"
       id="path9360" />
    <path
       d="m 274.51,205.88 h 9.8 v 9.81 h -9.8 z"
       style="fill:#f361b8;fill-opacity:1;fill-rule:nonzero;stroke:none"
       id="path9362" />
    <path
       d="m 274.51,215.69 h 9.8 v 9.8 h -9.8 z"
       style="fill:#f361b8;fill-opacity:1;fill-rule:nonzero;stroke:none"
       id="path9364" />
    <path
       d="m 274.51,225.49 h 9.8 v 9.8 h -9.8 z"
       style="fill:#f361b8;fill-opacity:1;fill-rule:nonzero;stroke:none"
       id="path9366" />
    <path
       d="m 274.51,235.29 h 9.8 v 9.81 h -9.8 z"
       style="fill:#f361b8;fill-opacity:1;fill-rule:nonzero;stroke:none"
       id="path9368" />
    <path
       d="m 274.51,245.1 h 9.8 v 9.8 h -9.8 z"
       style="fill:#f89cc0;fill-opacity:1;fill-rule:nonzero;stroke:none"
       id="path9370" />
    <path
       d="m 274.51,254.9 h 9.8 v 9.81 h -9.8 z"
       style="fill:#f89cc0;fill-opacity:1;fill-rule:nonzero;stroke:none"
       id="path9372" />
    <path
       d="m 274.51,264.71 h 9.8 v 9.8 h -9.8 z"
       style="fill:#f361b8;fill-opacity:1;fill-rule:nonzero;stroke:none"
       id="path9374" />
    <path
       d="m 274.51,274.51 h 9.8 v 9.8 h -9.8 z"
       style="fill:#f361b8;fill-opacity:1;fill-rule:nonzero;stroke:none"
       id="path9376" />
    <path
       d="m 284.31,294.12 h -9.8 v -9.81 h 9.8 z"
       style="fill:#f361b8;fill-opacity:1;fill-rule:nonzero;stroke:none"
       id="path9378" />
    <path
       d="m 264.71,166.67 h 9.8 v 9.8 h -9.8 z"
       style="fill:#f361b8;fill-opacity:1;fill-rule:nonzero;stroke:none"
       id="path9380" />
    <path
       d="m 264.71,176.47 h 9.8 v 9.8 h -9.8 z"
       style="fill:#f361b8;fill-opacity:1;fill-rule:nonzero;stroke:none"
       id="path9382" />
    <path
       d="m 264.71,186.27 h 9.8 v 9.81 h -9.8 z"
       style="fill:#f361b8;fill-opacity:1;fill-rule:nonzero;stroke:none"
       id="path9384" />
    <path
       d="m 264.71,196.08 h 9.8 v 9.8 h -9.8 z"
       style="fill:#f89cc0;fill-opacity:1;fill-rule:nonzero;stroke:none"
       id="path9386" />
    <path
       d="m 264.71,205.88 h 9.8 v 9.81 h -9.8 z"
       style="fill:#f361b8;fill-opacity:1;fill-rule:nonzero;stroke:none"
       id="path9388" />
    <path
       d="m 264.71,215.69 h 9.8 v 9.8 h -9.8 z"
       style="fill:#f361b8;fill-opacity:1;fill-rule:nonzero;stroke:none"
       id="path9390" />
    <path
       d="m 264.71,225.49 h 9.8 v 9.8 h -9.8 z"
       style="fill:#f89cc0;fill-opacity:1;fill-rule:nonzero;stroke:none"
       id="path9392" />
    <path
       d="m 264.71,235.29 h 9.8 v 9.81 h -9.8 z"
       style="fill:#f89cc0;fill-opacity:1;fill-rule:nonzero;stroke:none"
       id="path9394" />
    <path
       d="m 264.71,245.1 h 9.8 v 9.8 h -9.8 z"
       style="fill:#f361b8;fill-opacity:1;fill-rule:nonzero;stroke:none"
       id="path9396" />
    <path
       d="m 264.71,254.9 h 9.8 v 9.81 h -9.8 z"
       style="fill:#f361b8;fill-opacity:1;fill-rule:nonzero;stroke:none"
       id="path9398" />
    <path
       d="m 264.71,264.71 h 9.8 v 9.8 h -9.8 z"
       style="fill:#f89cc0;fill-opacity:1;fill-rule:nonzero;stroke:none"
       id="path9400" />
    <path
       d="m 274.51,284.31 h -9.8 v -9.8 h 9.8 z"
       style="fill:#f361b8;fill-opacity:1;fill-rule:nonzero;stroke:none"
       id="path9402" />
    <path
       d="m 274.51,294.12 h -9.8 v -9.81 h 9.8 z"
       style="fill:#f361b8;fill-opacity:1;fill-rule:nonzero;stroke:none"
       id="path9404" />
    <path
       d="m 254.9,166.67 h 9.81 v 9.8 h -9.81 z"
       style="fill:#f361b8;fill-opacity:1;fill-rule:nonzero;stroke:none"
       id="path9406" />
    <path
       d="m 254.9,176.47 h 9.81 v 9.8 h -9.81 z"
       style="fill:#f361b8;fill-opacity:1;fill-rule:nonzero;stroke:none"
       id="path9408" />
    <path
       d="m 254.9,186.27 h 9.81 v 9.81 h -9.81 z"
       style="fill:#f361b8;fill-opacity:1;fill-rule:nonzero;stroke:none"
       id="path9410" />
    <path
       d="m 254.9,196.08 h 9.81 v 9.8 h -9.81 z"
       style="fill:#f89cc0;fill-opacity:1;fill-rule:nonzero;stroke:none"
       id="path9412" />
    <path
       d="m 254.9,205.88 h 9.81 v 9.81 h -9.81 z"
       style="fill:#f361b8;fill-opacity:1;fill-rule:nonzero;stroke:none"
       id="path9414" />
    <path
       d="m 254.9,215.69 h 9.81 v 9.8 h -9.81 z"
       style="fill:#f89cc0;fill-opacity:1;fill-rule:nonzero;stroke:none"
       id="path9416" />
    <path
       d="m 254.9,225.49 h 9.81 v 9.8 h -9.81 z"
       style="fill:#f361b8;fill-opacity:1;fill-rule:nonzero;stroke:none"
       id="path9418" />
    <path
       d="m 254.9,235.29 h 9.81 v 9.81 h -9.81 z"
       style="fill:#f361b8;fill-opacity:1;fill-rule:nonzero;stroke:none"
       id="path9420" />
    <path
       d="m 254.9,245.1 h 9.81 v 9.8 h -9.81 z"
       style="fill:#f361b8;fill-opacity:1;fill-rule:nonzero;stroke:none"
       id="path9422" />
    <path
       d="m 254.9,254.9 h 9.81 v 9.81 h -9.81 z"
       style="fill:#f361b8;fill-opacity:1;fill-rule:nonzero;stroke:none"
       id="path9424" />
    <path
       d="m 264.71,274.51 h -9.81 v -9.8 h 9.81 z"
       style="fill:#f361b8;fill-opacity:1;fill-rule:nonzero;stroke:none"
       id="path9426" />
    <path
       d="m 264.71,284.31 h -9.81 v -9.8 h 9.81 z"
       style="fill:#f89cc0;fill-opacity:1;fill-rule:nonzero;stroke:none"
       id="path9428" />
    <path
       d="m 264.71,294.12 h -9.81 v -9.81 h 9.81 z"
       style="fill:#f361b8;fill-opacity:1;fill-rule:nonzero;stroke:none"
       id="path9430" />
    <path
       d="m 245.1,166.67 h 9.8 v 9.8 h -9.8 z"
       style="fill:#f361b8;fill-opacity:1;fill-rule:nonzero;stroke:none"
       id="path9432" />
    <path
       d="m 245.1,176.47 h 9.8 v 9.8 h -9.8 z"
       style="fill:#f89cc0;fill-opacity:1;fill-rule:nonzero;stroke:none"
       id="path9434" />
    <path
       d="m 245.1,186.27 h 9.8 v 9.81 h -9.8 z"
       style="fill:#f89cc0;fill-opacity:1;fill-rule:nonzero;stroke:none"
       id="path9436" />
    <path
       d="m 245.1,196.08 h 9.8 v 9.8 h -9.8 z"
       style="fill:#f89cc0;fill-opacity:1;fill-rule:nonzero;stroke:none"
       id="path9438" />
    <path
       d="m 245.1,205.88 h 9.8 v 9.81 h -9.8 z"
       style="fill:#f89cc0;fill-opacity:1;fill-rule:nonzero;stroke:none"
       id="path9440" />
    <path
       d="m 245.1,215.69 h 9.8 v 9.8 h -9.8 z"
       style="fill:#f89cc0;fill-opacity:1;fill-rule:nonzero;stroke:none"
       id="path9442" />
    <path
       d="m 245.1,225.49 h 9.8 v 9.8 h -9.8 z"
       style="fill:#f361b8;fill-opacity:1;fill-rule:nonzero;stroke:none"
       id="path9444" />
    <path
       d="m 245.1,235.29 h 9.8 v 9.81 h -9.8 z"
       style="fill:#f361b8;fill-opacity:1;fill-rule:nonzero;stroke:none"
       id="path9446" />
    <path
       d="m 245.1,245.1 h 9.8 v 9.8 h -9.8 z"
       style="fill:#f361b8;fill-opacity:1;fill-rule:nonzero;stroke:none"
       id="path9448" />
    <path
       d="m 254.9,264.71 h -9.8 v -9.81 h 9.8 z"
       style="fill:#f361b8;fill-opacity:1;fill-rule:nonzero;stroke:none"
       id="path9450" />
    <path
       d="m 254.9,274.51 h -9.8 v -9.8 h 9.8 z"
       style="fill:#f361b8;fill-opacity:1;fill-rule:nonzero;stroke:none"
       id="path9452" />
    <path
       d="m 254.9,284.31 h -9.8 v -9.8 h 9.8 z"
       style="fill:#f89cc0;fill-opacity:1;fill-rule:nonzero;stroke:none"
       id="path9454" />
    <path
       d="m 254.9,294.12 h -9.8 v -9.81 h 9.8 z"
       style="fill:#f361b8;fill-opacity:1;fill-rule:nonzero;stroke:none"
       id="path9456" />
    <path
       d="m 235.29,166.67 h 9.81 v 9.8 h -9.81 z"
       style="fill:#f361b8;fill-opacity:1;fill-rule:nonzero;stroke:none"
       id="path9458" />
    <path
       d="m 235.29,176.47 h 9.81 v 9.8 h -9.81 z"
       style="fill:#f361b8;fill-opacity:1;fill-rule:nonzero;stroke:none"
       id="path9460" />
    <path
       d="m 235.29,186.27 h 9.81 v 9.81 h -9.81 z"
       style="fill:#f361b8;fill-opacity:1;fill-rule:nonzero;stroke:none"
       id="path9462" />
    <path
       d="m 235.29,196.08 h 9.81 v 9.8 h -9.81 z"
       style="fill:#f89cc0;fill-opacity:1;fill-rule:nonzero;stroke:none"
       id="path9464" />
    <path
       d="m 235.29,205.88 h 9.81 v 9.81 h -9.81 z"
       style="fill:#f361b8;fill-opacity:1;fill-rule:nonzero;stroke:none"
       id="path9466" />
    <path
       d="m 235.29,215.69 h 9.81 v 9.8 h -9.81 z"
       style="fill:#f89cc0;fill-opacity:1;fill-rule:nonzero;stroke:none"
       id="path9468" />
    <path
       d="m 235.29,225.49 h 9.81 v 9.8 h -9.81 z"
       style="fill:#f361b8;fill-opacity:1;fill-rule:nonzero;stroke:none"
       id="path9470" />
    <path
       d="m 235.29,235.29 h 9.81 v 9.81 h -9.81 z"
       style="fill:#f361b8;fill-opacity:1;fill-rule:nonzero;stroke:none"
       id="path9472" />
    <path
       d="m 245.1,254.9 h -9.81 v -9.8 h 9.81 z"
       style="fill:#f361b8;fill-opacity:1;fill-rule:nonzero;stroke:none"
       id="path9474" />
    <path
       d="m 245.1,264.71 h -9.81 v -9.81 h 9.81 z"
       style="fill:#f361b8;fill-opacity:1;fill-rule:nonzero;stroke:none"
       id="path9476" />
    <path
       d="m 245.1,274.51 h -9.81 v -9.8 h 9.81 z"
       style="fill:#f361b8;fill-opacity:1;fill-rule:nonzero;stroke:none"
       id="path9478" />
    <path
       d="m 245.1,284.31 h -9.81 v -9.8 h 9.81 z"
       style="fill:#f89cc0;fill-opacity:1;fill-rule:nonzero;stroke:none"
       id="path9480" />
    <path
       d="m 245.1,294.12 h -9.81 v -9.81 h 9.81 z"
       style="fill:#f361b8;fill-opacity:1;fill-rule:nonzero;stroke:none"
       id="path9482" />
    <path
       d="m 225.49,166.67 h 9.8 v 9.8 h -9.8 z"
       style="fill:#f361b8;fill-opacity:1;fill-rule:nonzero;stroke:none"
       id="path9484" />
    <path
       d="m 225.49,176.47 h 9.8 v 9.8 h -9.8 z"
       style="fill:#f361b8;fill-opacity:1;fill-rule:nonzero;stroke:none"
       id="path9486" />
    <path
       d="m 225.49,186.27 h 9.8 v 9.81 h -9.8 z"
       style="fill:#f361b8;fill-opacity:1;fill-rule:nonzero;stroke:none"
       id="path9488" />
    <path
       d="m 225.49,196.08 h 9.8 v 9.8 h -9.8 z"
       style="fill:#f89cc0;fill-opacity:1;fill-rule:nonzero;stroke:none"
       id="path9490" />
    <path
       d="m 225.49,205.88 h 9.8 v 9.81 h -9.8 z"
       style="fill:#f361b8;fill-opacity:1;fill-rule:nonzero;stroke:none"
       id="path9492" />
    <path
       d="m 225.49,215.69 h 9.8 v 9.8 h -9.8 z"
       style="fill:#f361b8;fill-opacity:1;fill-rule:nonzero;stroke:none"
       id="path9494" />
    <path
       d="m 225.49,225.49 h 9.8 v 9.8 h -9.8 z"
       style="fill:#f89cc0;fill-opacity:1;fill-rule:nonzero;stroke:none"
       id="path9496" />
    <path
       d="m 235.29,245.1 h -9.8 v -9.81 h 9.8 z"
       style="fill:#f89cc0;fill-opacity:1;fill-rule:nonzero;stroke:none"
       id="path9498" />
    <path
       d="m 235.29,254.9 h -9.8 v -9.8 h 9.8 z"
       style="fill:#f361b8;fill-opacity:1;fill-rule:nonzero;stroke:none"
       id="path9500" />
    <path
       d="m 235.29,264.71 h -9.8 v -9.81 h 9.8 z"
       style="fill:#f361b8;fill-opacity:1;fill-rule:nonzero;stroke:none"
       id="path9502" />
    <path
       d="m 235.29,274.51 h -9.8 v -9.8 h 9.8 z"
       style="fill:#f89cc0;fill-opacity:1;fill-rule:nonzero;stroke:none"
       id="path9504" />
    <path
       d="m 235.29,284.31 h -9.8 v -9.8 h 9.8 z"
       style="fill:#f361b8;fill-opacity:1;fill-rule:nonzero;stroke:none"
       id="path9506" />
    <path
       d="m 235.29,294.12 h -9.8 v -9.81 h 9.8 z"
       style="fill:#f361b8;fill-opacity:1;fill-rule:nonzero;stroke:none"
       id="path9508" />
    <path
       d="m 215.69,166.67 h 9.8 v 9.8 h -9.8 z"
       style="fill:#f361b8;fill-opacity:1;fill-rule:nonzero;stroke:none"
       id="path9510" />
    <path
       d="m 215.69,176.47 h 9.8 v 9.8 h -9.8 z"
       style="fill:#f361b8;fill-opacity:1;fill-rule:nonzero;stroke:none"
       id="path9512" />
    <path
       d="m 215.69,186.27 h 9.8 v 9.81 h -9.8 z"
       style="fill:#f361b8;fill-opacity:1;fill-rule:nonzero;stroke:none"
       id="path9514" />
    <path
       d="m 215.69,196.08 h 9.8 v 9.8 h -9.8 z"
       style="fill:#f361b8;fill-opacity:1;fill-rule:nonzero;stroke:none"
       id="path9516" />
    <path
       d="m 215.69,205.88 h 9.8 v 9.81 h -9.8 z"
       style="fill:#f361b8;fill-opacity:1;fill-rule:nonzero;stroke:none"
       id="path9518" />
    <path
       d="m 215.69,215.69 h 9.8 v 9.8 h -9.8 z"
       style="fill:#f361b8;fill-opacity:1;fill-rule:nonzero;stroke:none"
       id="path9520" />
    <path
       d="m 225.49,235.29 h -9.8 v -9.8 h 9.8 z"
       style="fill:#f361b8;fill-opacity:1;fill-rule:nonzero;stroke:none"
       id="path9522" />
    <path
       d="m 225.49,245.1 h -9.8 v -9.81 h 9.8 z"
       style="fill:#f361b8;fill-opacity:1;fill-rule:nonzero;stroke:none"
       id="path9524" />
    <path
       d="m 225.49,254.9 h -9.8 v -9.8 h 9.8 z"
       style="fill:#f89cc0;fill-opacity:1;fill-rule:nonzero;stroke:none"
       id="path9526" />
    <path
       d="m 225.49,264.71 h -9.8 v -9.81 h 9.8 z"
       style="fill:#f89cc0;fill-opacity:1;fill-rule:nonzero;stroke:none"
       id="path9528" />
    <path
       d="m 225.49,274.51 h -9.8 v -9.8 h 9.8 z"
       style="fill:#f361b8;fill-opacity:1;fill-rule:nonzero;stroke:none"
       id="path9530" />
    <path
       d="m 225.49,284.31 h -9.8 v -9.8 h 9.8 z"
       style="fill:#f361b8;fill-opacity:1;fill-rule:nonzero;stroke:none"
       id="path9532" />
    <path
       d="m 225.49,294.12 h -9.8 v -9.81 h 9.8 z"
       style="fill:#f361b8;fill-opacity:1;fill-rule:nonzero;stroke:none"
       id="path9534" />
    <path
       d="m 205.88,166.67 h 9.81 v 9.8 h -9.81 z"
       style="fill:#f361b8;fill-opacity:1;fill-rule:nonzero;stroke:none"
       id="path9536" />
    <path
       d="m 205.88,176.47 h 9.81 v 9.8 h -9.81 z"
       style="fill:#f361b8;fill-opacity:1;fill-rule:nonzero;stroke:none"
       id="path9538" />
    <path
       d="m 205.88,186.27 h 9.81 v 9.81 h -9.81 z"
       style="fill:#f361b8;fill-opacity:1;fill-rule:nonzero;stroke:none"
       id="path9540" />
    <path
       d="m 205.88,196.08 h 9.81 v 9.8 h -9.81 z"
       style="fill:#f361b8;fill-opacity:1;fill-rule:nonzero;stroke:none"
       id="path9542" />
    <path
       d="m 205.88,205.88 h 9.81 v 9.81 h -9.81 z"
       style="fill:#f361b8;fill-opacity:1;fill-rule:nonzero;stroke:none"
       id="path9544" />
    <path
       d="m 215.69,225.49 h -9.81 v -9.8 h 9.81 z"
       style="fill:#f361b8;fill-opacity:1;fill-rule:nonzero;stroke:none"
       id="path9546" />
    <path
       d="m 215.69,235.29 h -9.81 v -9.8 h 9.81 z"
       style="fill:#f361b8;fill-opacity:1;fill-rule:nonzero;stroke:none"
       id="path9548" />
    <path
       d="m 215.69,245.1 h -9.81 v -9.81 h 9.81 z"
       style="fill:#f361b8;fill-opacity:1;fill-rule:nonzero;stroke:none"
       id="path9550" />
    <path
       d="m 215.69,254.9 h -9.81 v -9.8 h 9.81 z"
       style="fill:#f361b8;fill-opacity:1;fill-rule:nonzero;stroke:none"
       id="path9552" />
    <path
       d="m 215.69,264.71 h -9.81 v -9.81 h 9.81 z"
       style="fill:#f361b8;fill-opacity:1;fill-rule:nonzero;stroke:none"
       id="path9554" />
    <path
       d="m 215.69,274.51 h -9.81 v -9.8 h 9.81 z"
       style="fill:#f361b8;fill-opacity:1;fill-rule:nonzero;stroke:none"
       id="path9556" />
    <path
       d="m 215.69,284.31 h -9.81 v -9.8 h 9.81 z"
       style="fill:#f361b8;fill-opacity:1;fill-rule:nonzero;stroke:none"
       id="path9558" />
    <path
       d="m 215.69,294.12 h -9.81 v -9.81 h 9.81 z"
       style="fill:#f361b8;fill-opacity:1;fill-rule:nonzero;stroke:none"
       id="path9560" />
    <path
       d="m 196.08,166.67 h 9.8 v 9.8 h -9.8 z"
       style="fill:#f361b8;fill-opacity:1;fill-rule:nonzero;stroke:none"
       id="path9562" />
    <path
       d="m 196.08,176.47 h 9.8 v 9.8 h -9.8 z"
       style="fill:#f361b8;fill-opacity:1;fill-rule:nonzero;stroke:none"
       id="path9564" />
    <path
       d="m 196.08,186.27 h 9.8 v 9.81 h -9.8 z"
       style="fill:#f361b8;fill-opacity:1;fill-rule:nonzero;stroke:none"
       id="path9566" />
    <path
       d="m 196.08,196.08 h 9.8 v 9.8 h -9.8 z"
       style="fill:#f361b8;fill-opacity:1;fill-rule:nonzero;stroke:none"
       id="path9568" />
    <path
       d="m 205.88,215.69 h -9.8 v -9.81 h 9.8 z"
       style="fill:#f361b8;fill-opacity:1;fill-rule:nonzero;stroke:none"
       id="path9570" />
    <path
       d="m 205.88,225.49 h -9.8 v -9.8 h 9.8 z"
       style="fill:#f361b8;fill-opacity:1;fill-rule:nonzero;stroke:none"
       id="path9572" />
    <path
       d="m 205.88,235.29 h -9.8 v -9.8 h 9.8 z"
       style="fill:#f361b8;fill-opacity:1;fill-rule:nonzero;stroke:none"
       id="path9574" />
    <path
       d="m 205.88,245.1 h -9.8 v -9.81 h 9.8 z"
       style="fill:#f361b8;fill-opacity:1;fill-rule:nonzero;stroke:none"
       id="path9576" />
    <path
       d="m 205.88,254.9 h -9.8 v -9.8 h 9.8 z"
       style="fill:#f361b8;fill-opacity:1;fill-rule:nonzero;stroke:none"
       id="path9578" />
    <path
       d="m 205.88,264.71 h -9.8 v -9.81 h 9.8 z"
       style="fill:#f361b8;fill-opacity:1;fill-rule:nonzero;stroke:none"
       id="path9580" />
    <path
       d="m 205.88,274.51 h -9.8 v -9.8 h 9.8 z"
       style="fill:#f361b8;fill-opacity:1;fill-rule:nonzero;stroke:none"
       id="path9582" />
    <path
       d="m 205.88,284.31 h -9.8 v -9.8 h 9.8 z"
       style="fill:#f361b8;fill-opacity:1;fill-rule:nonzero;stroke:none"
       id="path9584" />
    <path
       d="m 205.88,294.12 h -9.8 v -9.81 h 9.8 z"
       style="fill:#f361b8;fill-opacity:1;fill-rule:nonzero;stroke:none"
       id="path9586" />
    <path
       d="m 186.27,166.67 h 9.81 v 9.8 h -9.81 z"
       style="fill:#f361b8;fill-opacity:1;fill-rule:nonzero;stroke:none"
       id="path9588" />
    <path
       d="m 186.27,176.47 h 9.81 v 9.8 h -9.81 z"
       style="fill:#f361b8;fill-opacity:1;fill-rule:nonzero;stroke:none"
       id="path9590" />
    <path
       d="m 186.27,186.27 h 9.81 v 9.81 h -9.81 z"
       style="fill:#f361b8;fill-opacity:1;fill-rule:nonzero;stroke:none"
       id="path9592" />
    <path
       d="m 196.08,205.88 h -9.81 v -9.8 h 9.81 z"
       style="fill:#f361b8;fill-opacity:1;fill-rule:nonzero;stroke:none"
       id="path9594" />
    <path
       d="m 196.08,215.69 h -9.81 v -9.81 h 9.81 z"
       style="fill:#f361b8;fill-opacity:1;fill-rule:nonzero;stroke:none"
       id="path9596" />
    <path
       d="m 196.08,225.49 h -9.81 v -9.8 h 9.81 z"
       style="fill:#f361b8;fill-opacity:1;fill-rule:nonzero;stroke:none"
       id="path9598" />
    <path
       d="m 196.08,235.29 h -9.81 v -9.8 h 9.81 z"
       style="fill:#f361b8;fill-opacity:1;fill-rule:nonzero;stroke:none"
       id="path9600" />
    <path
       d="m 196.08,245.1 h -9.81 v -9.81 h 9.81 z"
       style="fill:#f361b8;fill-opacity:1;fill-rule:nonzero;stroke:none"
       id="path9602" />
    <path
       d="m 196.08,254.9 h -9.81 v -9.8 h 9.81 z"
       style="fill:#f361b8;fill-opacity:1;fill-rule:nonzero;stroke:none"
       id="path9604" />
    <path
       d="m 196.08,264.71 h -9.81 v -9.81 h 9.81 z"
       style="fill:#f361b8;fill-opacity:1;fill-rule:nonzero;stroke:none"
       id="path9606" />
    <path
       d="m 196.08,274.51 h -9.81 v -9.8 h 9.81 z"
       style="fill:#f361b8;fill-opacity:1;fill-rule:nonzero;stroke:none"
       id="path9608" />
    <path
       d="m 196.08,284.31 h -9.81 v -9.8 h 9.81 z"
       style="fill:#f361b8;fill-opacity:1;fill-rule:nonzero;stroke:none"
       id="path9610" />
  </g>
</svg>
