<?xml version="1.0" encoding="UTF-8" standalone="no"?>
<!-- Created with Inkscape (http://www.inkscape.org/) -->

<svg
   version="1.1"
   id="svg8962"
   width="143.8"
   height="169.93333"
   viewBox="0 0 143.8 169.93334"
   sodipodi:docname="human-race-icon.svg"
   inkscape:version="1.2.1 (9c6d41e410, 2022-07-14)"
   xmlns:inkscape="http://www.inkscape.org/namespaces/inkscape"
   xmlns:sodipodi="http://sodipodi.sourceforge.net/DTD/sodipodi-0.dtd"
   xmlns="http://www.w3.org/2000/svg"
   xmlns:svg="http://www.w3.org/2000/svg">
  <defs
     id="defs8966" />
  <sodipodi:namedview
     id="namedview8964"
     pagecolor="#ffffff"
     bordercolor="#000000"
     borderopacity="0.25"
     inkscape:showpageshadow="2"
     inkscape:pageopacity="0.0"
     inkscape:pagecheckerboard="0"
     inkscape:deskcolor="#d1d1d1"
     showgrid="false"
     inkscape:zoom="1.5405"
     inkscape:cx="149.95132"
     inkscape:cy="98.020126"
     inkscape:window-width="2560"
     inkscape:window-height="1334"
     inkscape:window-x="-11"
     inkscape:window-y="-11"
     inkscape:window-maximized="1"
     inkscape:current-layer="g8970">
    <inkscape:page
       x="0"
       y="0"
       id="page8968"
       width="143.8"
       height="169.93333" />
  </sodipodi:namedview>
  <g shape-rendering="crispEdges"
     id="g8970"
     inkscape:groupmode="layer"
     inkscape:label="Page 1"
     transform="matrix(1.3333333,0,0,-1.3333333,-183,431.37332)">
    <path
       d="m 215.69,323.53 h -9.81 v -9.8 h 9.81 z"
       style="fill:#181419;fill-opacity:1;fill-rule:nonzero;stroke:none"
       id="path8972" />
    <path
       d="m 225.49,323.53 h -9.8 v -9.8 h 9.8 z"
       style="fill:#181419;fill-opacity:1;fill-rule:nonzero;stroke:none"
       id="path8974" />
    <path
       d="m 205.88,323.53 h -9.8 v -9.8 h 9.8 z"
       style="fill:#181419;fill-opacity:1;fill-rule:nonzero;stroke:none"
       id="path8976" />
    <path
       d="m 196.08,323.53 h -9.81 v -9.8 h 9.81 z"
       style="fill:#181419;fill-opacity:1;fill-rule:nonzero;stroke:none"
       id="path8978" />
    <path
       d="m 186.27,323.53 h -9.8 v -9.8 h 9.8 z"
       style="fill:#181419;fill-opacity:1;fill-rule:nonzero;stroke:none"
       id="path8980" />
    <path
       d="m 166.67,323.53 h -9.81 v -9.8 h 9.81 z"
       style="fill:#181419;fill-opacity:1;fill-rule:nonzero;stroke:none"
       id="path8982" />
    <path
       d="m 176.47,323.53 h -9.8 v -9.8 h 9.8 z"
       style="fill:#181419;fill-opacity:1;fill-rule:nonzero;stroke:none"
       id="path8984" />
    <path
       d="m 156.86,303.92 h -9.8 v -9.8 h 9.8 z"
       style="fill:#181419;fill-opacity:1;fill-rule:nonzero;stroke:none"
       id="path8986" />
    <path
       d="m 166.67,313.73 h -9.81 v -9.81 h 9.81 z"
       style="fill:#181419;fill-opacity:1;fill-rule:nonzero;stroke:none"
       id="path8988" />
    <path
       d="m 156.86,313.73 h -9.8 v -9.81 h 9.8 z"
       style="fill:#181419;fill-opacity:1;fill-rule:nonzero;stroke:none"
       id="path8990" />
    <path
       d="m 215.69,313.73 h -9.81 v -9.81 h 9.81 z"
       style="fill:#181419;fill-opacity:1;fill-rule:nonzero;stroke:none"
       id="path8992" />
    <path
       d="m 225.49,313.73 h -9.8 v -9.81 h 9.8 z"
       style="fill:#181419;fill-opacity:1;fill-rule:nonzero;stroke:none"
       id="path8994" />
    <path
       d="m 205.88,313.73 h -9.8 v -9.81 h 9.8 z"
       style="fill:#181419;fill-opacity:1;fill-rule:nonzero;stroke:none"
       id="path8996" />
    <path
       d="m 196.08,313.73 h -9.81 v -9.81 h 9.81 z"
       style="fill:#181419;fill-opacity:1;fill-rule:nonzero;stroke:none"
       id="path8998" />
    <path
       d="m 176.47,313.73 h -9.8 v -9.81 h 9.8 z"
       style="fill:#181419;fill-opacity:1;fill-rule:nonzero;stroke:none"
       id="path9000" />
    <path
       d="m 186.27,313.73 h -9.8 v -9.81 h 9.8 z"
       style="fill:#181419;fill-opacity:1;fill-rule:nonzero;stroke:none"
       id="path9002" />
    <path
       d="m 235.29,313.73 h -9.8 v -9.81 h 9.8 z"
       style="fill:#181419;fill-opacity:1;fill-rule:nonzero;stroke:none"
       id="path9004" />
    <path
       d="m 235.29,303.92 h -9.8 v -9.8 h 9.8 z"
       style="fill:#181419;fill-opacity:1;fill-rule:nonzero;stroke:none"
       id="path9006" />
    <path
       d="m 245.1,274.51 h -9.81 v -9.8 h 9.81 z"
       style="fill:#a67e6b;fill-opacity:1;fill-rule:nonzero;stroke:none"
       id="path9008" />
    <path
       d="m 245.1,284.31 h -9.81 v -9.8 h 9.81 z"
       style="fill:#a67e6b;fill-opacity:1;fill-rule:nonzero;stroke:none"
       id="path9010" />
    <path
       d="m 147.06,284.31 h -9.81 v -9.8 h 9.81 z"
       style="fill:#a67e6b;fill-opacity:1;fill-rule:nonzero;stroke:none"
       id="path9012" />
    <path
       d="m 147.06,274.51 h -9.81 v -9.8 h 9.81 z"
       style="fill:#a67e6b;fill-opacity:1;fill-rule:nonzero;stroke:none"
       id="path9014" />
    <path
       d="m 215.69,196.08 h 9.8 v 9.8 h -9.8 z"
       style="fill:#42a8a5;fill-opacity:1;fill-rule:nonzero;stroke:none"
       id="path9016" />
    <path
       d="m 205.88,196.08 h 9.81 v 9.8 h -9.81 z"
       style="fill:#42a8a5;fill-opacity:1;fill-rule:nonzero;stroke:none"
       id="path9018" />
    <path
       d="m 196.08,196.08 h 9.8 v 9.8 h -9.8 z"
       style="fill:#42a8a5;fill-opacity:1;fill-rule:nonzero;stroke:none"
       id="path9020" />
    <path
       d="m 196.08,205.88 h -9.81 v -9.8 h 9.81 z"
       style="fill:#42a8a5;fill-opacity:1;fill-rule:nonzero;stroke:none"
       id="path9022" />
    <path
       d="m 176.47,205.88 h -9.8 v -9.8 h 9.8 z"
       style="fill:#42a8a5;fill-opacity:1;fill-rule:nonzero;stroke:none"
       id="path9024" />
    <path
       d="m 186.27,205.88 h -9.8 v -9.8 h 9.8 z"
       style="fill:#42a8a5;fill-opacity:1;fill-rule:nonzero;stroke:none"
       id="path9026" />
    <path
       d="m 166.67,205.88 h -9.81 v -9.8 h 9.81 z"
       style="fill:#42a8a5;fill-opacity:1;fill-rule:nonzero;stroke:none"
       id="path9028" />
    <path
       d="m 215.69,225.49 h -9.81 v -9.8 h 9.81 z"
       style="fill:#42a8a5;fill-opacity:1;fill-rule:nonzero;stroke:none"
       id="path9030" />
    <path
       d="m 205.88,205.88 h 9.81 v 9.81 h -9.81 z"
       style="fill:#42a8a5;fill-opacity:1;fill-rule:nonzero;stroke:none"
       id="path9032" />
    <path
       d="m 205.88,215.69 h -9.8 v -9.81 h 9.8 z"
       style="fill:#42a8a5;fill-opacity:1;fill-rule:nonzero;stroke:none"
       id="path9034" />
    <path
       d="m 196.08,215.69 h -9.81 v -9.81 h 9.81 z"
       style="fill:#42a8a5;fill-opacity:1;fill-rule:nonzero;stroke:none"
       id="path9036" />
    <path
       d="m 186.27,215.69 h -9.8 v -9.81 h 9.8 z"
       style="fill:#42a8a5;fill-opacity:1;fill-rule:nonzero;stroke:none"
       id="path9038" />
    <path
       d="m 176.47,225.49 h -9.8 v -9.8 h 9.8 z"
       style="fill:#42a8a5;fill-opacity:1;fill-rule:nonzero;stroke:none"
       id="path9040" />
    <path
       d="m 176.47,215.69 h -9.8 v -9.81 h 9.8 z"
       style="fill:#42a8a5;fill-opacity:1;fill-rule:nonzero;stroke:none"
       id="path9042" />
    <path
       d="m 205.88,225.49 h -9.8 v -9.8 h 9.8 z"
       style="fill:#fabc9d;fill-opacity:1;fill-rule:nonzero;stroke:none"
       id="path9044" />
    <path
       d="m 196.08,225.49 h -9.81 v -9.8 h 9.81 z"
       style="fill:#fabc9d;fill-opacity:1;fill-rule:nonzero;stroke:none"
       id="path9046" />
    <path
       d="m 186.27,225.49 h -9.8 v -9.8 h 9.8 z"
       style="fill:#fabc9d;fill-opacity:1;fill-rule:nonzero;stroke:none"
       id="path9048" />
    <path
       d="m 205.88,235.29 h -9.8 v -9.8 h 9.8 z"
       style="fill:#fabc9d;fill-opacity:1;fill-rule:nonzero;stroke:none"
       id="path9050" />
    <path
       d="m 196.08,235.29 h -9.81 v -9.8 h 9.81 z"
       style="fill:#fabc9d;fill-opacity:1;fill-rule:nonzero;stroke:none"
       id="path9052" />
    <path
       d="m 186.27,235.29 h -9.8 v -9.8 h 9.8 z"
       style="fill:#fabc9d;fill-opacity:1;fill-rule:nonzero;stroke:none"
       id="path9054" />
    <path
       d="m 215.69,254.9 h -9.81 v -9.8 h 9.81 z"
       style="fill:#fabc9d;fill-opacity:1;fill-rule:nonzero;stroke:none"
       id="path9056" />
    <path
       d="m 205.88,254.9 h -9.8 v -9.8 h 9.8 z"
       style="fill:#fabc9d;fill-opacity:1;fill-rule:nonzero;stroke:none"
       id="path9058" />
    <path
       d="m 196.08,254.9 h -9.81 v -9.8 h 9.81 z"
       style="fill:#fabc9d;fill-opacity:1;fill-rule:nonzero;stroke:none"
       id="path9060" />
    <path
       d="m 186.27,254.9 h -9.8 v -9.8 h 9.8 z"
       style="fill:#fabc9d;fill-opacity:1;fill-rule:nonzero;stroke:none"
       id="path9062" />
    <path
       d="m 225.49,274.51 h -9.8 v -9.8 h 9.8 z"
       style="fill:#fabc9d;fill-opacity:1;fill-rule:nonzero;stroke:none"
       id="path9064" />
    <path
       d="m 225.49,284.31 h -9.8 v -9.8 h 9.8 z"
       style="fill:#fabc9d;fill-opacity:1;fill-rule:nonzero;stroke:none"
       id="path9066" />
    <path
       d="m 225.49,264.71 h -9.8 v -9.81 h 9.8 z"
       style="fill:#fabc9d;fill-opacity:1;fill-rule:nonzero;stroke:none"
       id="path9068" />
    <path
       d="m 215.69,274.51 h -9.81 v -9.8 h 9.81 z"
       style="fill:#182341;fill-opacity:1;fill-rule:nonzero;stroke:none"
       id="path9070" />
    <path
       d="m 215.69,284.31 h -9.81 v -9.8 h 9.81 z"
       style="fill:#182341;fill-opacity:1;fill-rule:nonzero;stroke:none"
       id="path9072" />
    <path
       d="m 215.69,264.71 h -9.81 v -9.81 h 9.81 z"
       style="fill:#fabc9d;fill-opacity:1;fill-rule:nonzero;stroke:none"
       id="path9074" />
    <path
       d="m 205.88,284.31 h -9.8 v -9.8 h 9.8 z"
       style="fill:#fabc9d;fill-opacity:1;fill-rule:nonzero;stroke:none"
       id="path9076" />
    <path
       d="m 205.88,264.71 h -9.8 v -9.81 h 9.8 z"
       style="fill:#fabc9d;fill-opacity:1;fill-rule:nonzero;stroke:none"
       id="path9078" />
    <path
       d="m 205.88,274.51 h -9.8 v -9.8 h 9.8 z"
       style="fill:#fabc9d;fill-opacity:1;fill-rule:nonzero;stroke:none"
       id="path9080" />
    <path
       d="m 205.88,294.12 h -9.8 v -9.81 h 9.8 z"
       style="fill:#fabc9d;fill-opacity:1;fill-rule:nonzero;stroke:none"
       id="path9082" />
    <path
       d="m 196.08,294.12 h -9.81 v -9.81 h 9.81 z"
       style="fill:#fabc9d;fill-opacity:1;fill-rule:nonzero;stroke:none"
       id="path9084" />
    <path
       d="m 196.08,274.51 h -9.81 v -9.8 h 9.81 z"
       style="fill:#fabc9d;fill-opacity:1;fill-rule:nonzero;stroke:none"
       id="path9086" />
    <path
       d="m 196.08,284.31 h -9.81 v -9.8 h 9.81 z"
       style="fill:#fabc9d;fill-opacity:1;fill-rule:nonzero;stroke:none"
       id="path9088" />
    <path
       d="m 196.08,264.71 h -9.81 v -9.81 h 9.81 z"
       style="fill:#a67e6b;fill-opacity:1;fill-rule:nonzero;stroke:none"
       id="path9090" />
    <path
       d="m 186.27,264.71 h -9.8 v -9.81 h 9.8 z"
       style="fill:#fabc9d;fill-opacity:1;fill-rule:nonzero;stroke:none"
       id="path9092" />
    <path
       d="m 186.27,274.51 h -9.8 v -9.8 h 9.8 z"
       style="fill:#fabc9d;fill-opacity:1;fill-rule:nonzero;stroke:none"
       id="path9094" />
    <path
       d="m 176.47,274.51 h -9.8 v -9.8 h 9.8 z"
       style="fill:#182341;fill-opacity:1;fill-rule:nonzero;stroke:none"
       id="path9096" />
    <path
       d="m 186.27,294.12 h -9.8 v -9.81 h 9.8 z"
       style="fill:#fabc9d;fill-opacity:1;fill-rule:nonzero;stroke:none"
       id="path9098" />
    <path
       d="m 176.47,294.12 h -9.8 v -9.81 h 9.8 z"
       style="fill:#fabc9d;fill-opacity:1;fill-rule:nonzero;stroke:none"
       id="path9100" />
    <path
       d="m 186.27,284.31 h -9.8 v -9.8 h 9.8 z"
       style="fill:#fabc9d;fill-opacity:1;fill-rule:nonzero;stroke:none"
       id="path9102" />
    <path
       d="m 176.47,284.31 h -9.8 v -9.8 h 9.8 z"
       style="fill:#182341;fill-opacity:1;fill-rule:nonzero;stroke:none"
       id="path9104" />
    <path
       d="m 166.67,284.31 h -9.81 v -9.8 h 9.81 z"
       style="fill:#fabc9d;fill-opacity:1;fill-rule:nonzero;stroke:none"
       id="path9106" />
    <path
       d="m 166.67,294.12 h -9.81 v -9.81 h 9.81 z"
       style="fill:#fabc9d;fill-opacity:1;fill-rule:nonzero;stroke:none"
       id="path9108" />
    <path
       d="m 166.67,274.51 h -9.81 v -9.8 h 9.81 z"
       style="fill:#fabc9d;fill-opacity:1;fill-rule:nonzero;stroke:none"
       id="path9110" />
    <path
       d="m 166.67,303.92 h -9.81 v -9.8 h 9.81 z"
       style="fill:#fabc9d;fill-opacity:1;fill-rule:nonzero;stroke:none"
       id="path9112" />
    <path
       d="m 176.47,303.92 h -9.8 v -9.8 h 9.8 z"
       style="fill:#fabc9d;fill-opacity:1;fill-rule:nonzero;stroke:none"
       id="path9114" />
    <path
       d="m 205.88,303.92 h -9.8 v -9.8 h 9.8 z"
       style="fill:#fabc9d;fill-opacity:1;fill-rule:nonzero;stroke:none"
       id="path9116" />
    <path
       d="m 196.08,303.92 h -9.81 v -9.8 h 9.81 z"
       style="fill:#fabc9d;fill-opacity:1;fill-rule:nonzero;stroke:none"
       id="path9118" />
    <path
       d="m 186.27,303.92 h -9.8 v -9.8 h 9.8 z"
       style="fill:#fabc9d;fill-opacity:1;fill-rule:nonzero;stroke:none"
       id="path9120" />
    <path
       d="m 225.49,303.92 h -9.8 v -9.8 h 9.8 z"
       style="fill:#fabc9d;fill-opacity:1;fill-rule:nonzero;stroke:none"
       id="path9122" />
    <path
       d="m 235.29,294.12 h -9.8 v -9.81 h 9.8 z"
       style="fill:#fabc9d;fill-opacity:1;fill-rule:nonzero;stroke:none"
       id="path9124" />
    <path
       d="m 215.69,303.92 h -9.81 v -9.8 h 9.81 z"
       style="fill:#fabc9d;fill-opacity:1;fill-rule:nonzero;stroke:none"
       id="path9126" />
    <path
       d="m 215.69,294.12 h -9.81 v -9.81 h 9.81 z"
       style="fill:#fabc9d;fill-opacity:1;fill-rule:nonzero;stroke:none"
       id="path9128" />
    <path
       d="m 225.49,294.12 h -9.8 v -9.81 h 9.8 z"
       style="fill:#fabc9d;fill-opacity:1;fill-rule:nonzero;stroke:none"
       id="path9130" />
    <path
       d="m 235.29,284.31 h -9.8 v -9.8 h 9.8 z"
       style="fill:#fabc9d;fill-opacity:1;fill-rule:nonzero;stroke:none"
       id="path9132" />
    <path
       d="m 235.29,274.51 h -9.8 v -9.8 h 9.8 z"
       style="fill:#fabc9d;fill-opacity:1;fill-rule:nonzero;stroke:none"
       id="path9134" />
    <path
       d="m 235.29,264.71 h -9.8 v -9.81 h 9.8 z"
       style="fill:#fabc9d;fill-opacity:1;fill-rule:nonzero;stroke:none"
       id="path9136" />
    <path
       d="m 225.49,254.9 h -9.8 v -9.8 h 9.8 z"
       style="fill:#fabc9d;fill-opacity:1;fill-rule:nonzero;stroke:none"
       id="path9138" />
    <path
       d="m 215.69,245.1 h -9.81 v -9.81 h 9.81 z"
       style="fill:#fabc9d;fill-opacity:1;fill-rule:nonzero;stroke:none"
       id="path9140" />
    <path
       d="m 205.88,245.1 h -9.8 v -9.81 h 9.8 z"
       style="fill:#fabc9d;fill-opacity:1;fill-rule:nonzero;stroke:none"
       id="path9142" />
    <path
       d="m 196.08,245.1 h -9.81 v -9.81 h 9.81 z"
       style="fill:#fabc9d;fill-opacity:1;fill-rule:nonzero;stroke:none"
       id="path9144" />
    <path
       d="m 186.27,245.1 h -9.8 v -9.81 h 9.8 z"
       style="fill:#fabc9d;fill-opacity:1;fill-rule:nonzero;stroke:none"
       id="path9146" />
    <path
       d="m 166.67,264.71 h -9.81 v -9.81 h 9.81 z"
       style="fill:#fabc9d;fill-opacity:1;fill-rule:nonzero;stroke:none"
       id="path9148" />
    <path
       d="m 176.47,264.71 h -9.8 v -9.81 h 9.8 z"
       style="fill:#fabc9d;fill-opacity:1;fill-rule:nonzero;stroke:none"
       id="path9150" />
    <path
       d="m 176.47,254.9 h -9.8 v -9.8 h 9.8 z"
       style="fill:#fabc9d;fill-opacity:1;fill-rule:nonzero;stroke:none"
       id="path9152" />
    <path
       d="m 176.47,245.1 h -9.8 v -9.81 h 9.8 z"
       style="fill:#fabc9d;fill-opacity:1;fill-rule:nonzero;stroke:none"
       id="path9154" />
    <path
       d="m 166.67,254.9 h -9.81 v -9.8 h 9.81 z"
       style="fill:#fabc9d;fill-opacity:1;fill-rule:nonzero;stroke:none"
       id="path9156" />
    <path
       d="m 156.86,264.71 h -9.8 v -9.81 h 9.8 z"
       style="fill:#fabc9d;fill-opacity:1;fill-rule:nonzero;stroke:none"
       id="path9158" />
    <path
       d="m 156.86,274.51 h -9.8 v -9.8 h 9.8 z"
       style="fill:#fabc9d;fill-opacity:1;fill-rule:nonzero;stroke:none"
       id="path9160" />
    <path
       d="m 156.86,284.31 h -9.8 v -9.8 h 9.8 z"
       style="fill:#fabc9d;fill-opacity:1;fill-rule:nonzero;stroke:none"
       id="path9162" />
    <path
       d="m 156.86,294.12 h -9.8 v -9.81 h 9.8 z"
       style="fill:#fabc9d;fill-opacity:1;fill-rule:nonzero;stroke:none"
       id="path9164" />
  </g>
</svg>
