<?xml version="1.0" encoding="UTF-8" standalone="no"?>
<!-- Created with Inkscape (http://www.inkscape.org/) -->

<svg
   width="15.169444mm"
   height="5.6444402mm"
   viewBox="0 0 15.169444 5.6444402"
   version="1.1"
   id="svg1540"
   inkscape:version="1.2.1 (9c6d41e410, 2022-07-14)"
   sodipodi:docname="drawing.svg"
   xmlns:inkscape="http://www.inkscape.org/namespaces/inkscape"
   xmlns:sodipodi="http://sodipodi.sourceforge.net/DTD/sodipodi-0.dtd"
   xmlns="http://www.w3.org/2000/svg"
   xmlns:svg="http://www.w3.org/2000/svg">
  <sodipodi:namedview
     id="namedview1542"
     pagecolor="#ffffff"
     bordercolor="#000000"
     borderopacity="0.25"
     inkscape:showpageshadow="2"
     inkscape:pageopacity="0.0"
     inkscape:pagecheckerboard="0"
     inkscape:deskcolor="#d1d1d1"
     inkscape:document-units="mm"
     showgrid="false"
     inkscape:zoom="10.35098"
     inkscape:cx="38.402162"
     inkscape:cy="21.060808"
     inkscape:window-width="2560"
     inkscape:window-height="1334"
     inkscape:window-x="-11"
     inkscape:window-y="-11"
     inkscape:window-maximized="1"
     inkscape:current-layer="layer1" />
  <defs
     id="defs1537">
    <pattern
       id="EMFhbasepattern"
       patternUnits="userSpaceOnUse"
       width="6"
       height="6"
       x="0"
       y="0" />
  </defs>
  <g
     shape-rendering="crispEdges"
     inkscape:label="Layer 1"
     inkscape:groupmode="layer"
     id="layer1"
     transform="translate(-39.842736,-17.132015)">
    <path
       style="fill:#6661a3;fill-opacity:1;fill-rule:nonzero;stroke:none;stroke-width:0.264583"
       d="m 54.306625,21.012565 h -0.352778 v 0.70556 h 0.352778 v -0.35278 h 0.352778 v -1.05833 h -0.352778 z"
       id="path1549" />
    <path
       style="fill:#6661a3;fill-opacity:1;fill-rule:nonzero;stroke:none;stroke-width:0.264583"
       d="m 53.953847,18.190345 h 0.352778 v -0.35278 h -0.352778 z"
       id="path1551" />
    <path
       style="fill:#4d3981;fill-opacity:1;fill-rule:nonzero;stroke:none;stroke-width:0.264583"
       d="m 41.253847,17.484795 v 0.35277 H 40.90107 v 0.35278 h -0.352778 v 0.35278 h -0.352778 v 3.88055 h 12.347222 v -0.35277 h 0.705556 v -0.35278 h 0.705555 v -0.70556 h 0.352778 v -0.70555 h 0.352778 v -2.82222 z m 0,4.58611 v -0.35278 H 40.90107 v 0.35278 h -0.352778 v -0.35278 h 0.352778 v -0.35278 h 0.352777 v 0.35278 h 0.352778 v 0.35278 z m 13.052778,-3.88056 h -0.352778 v 0.35278 h -0.352778 v -0.35278 h -0.352777 v -0.35278 h 0.352777 v 0.35278 h 0.352778 v -0.35278 h 0.352778 z"
       id="path1553" />
    <path
       style="fill:#6661a3;fill-opacity:1;fill-rule:nonzero;stroke:none;stroke-width:0.264583"
       d="m 53.601069,18.543125 h 0.352778 v -0.35278 h -0.352778 z"
       id="path1555" />
    <path
       style="fill:#6661a3;fill-opacity:1;fill-rule:nonzero;stroke:none;stroke-width:0.264583"
       d="m 53.248292,21.718125 v 0.35278 h -0.705556 v 0.35277 h 1.058333 v -0.35277 h 0.352778 v -0.35278 z"
       id="path1557" />
    <path
       style="fill:#6661a3;fill-opacity:1;fill-rule:nonzero;stroke:none;stroke-width:0.264583"
       d="m 53.248292,17.837565 v 0.35278 h 0.352777 v -0.35278 z"
       id="path1559" />
    <path
       style="fill:#6661a3;fill-opacity:1;fill-rule:nonzero;stroke:none;stroke-width:0.264583"
       d="m 41.253847,21.718125 v 0.35278 h 0.352778 v -0.35278 z"
       id="path1561" />
    <path
       style="fill:#6661a3;fill-opacity:1;fill-rule:nonzero;stroke:none;stroke-width:0.264583"
       d="m 40.90107,21.365345 v 0.35278 h 0.352777 v -0.35278 z"
       id="path1563" />
    <path
       style="fill:#6661a3;fill-opacity:1;fill-rule:nonzero;stroke:none;stroke-width:0.264583"
       d="m 40.548292,22.070905 h 0.352778 v -0.35278 h -0.352778 z"
       id="path1565" />
    <path
       style="fill:#6661a3;fill-opacity:1;fill-rule:nonzero;stroke:none;stroke-width:0.264583"
       d="m 40.548292,18.190345 h 0.352778 v -0.35278 h 0.352777 v -0.35277 h -1.058333 v 1.05833 h 0.352778 z"
       id="path1567" />
    <path
       style="fill:#37235f;fill-opacity:1;fill-rule:nonzero;stroke:none;stroke-width:0.264583"
       d="m 39.842736,17.132015 v 5.64444 h 14.111111 v -0.35278 h 0.352778 v -0.35277 h 0.352778 v -0.35278 h 0.352777 v -4.58611 z m 14.816667,4.23333 h -0.352778 v 0.35278 h -0.352778 v 0.35278 h -0.352778 v 0.35277 H 40.195514 v -4.93888 h 14.463889 z"
       id="path1569" />
    <path
       style="fill:#6661a3;fill-opacity:1;fill-rule:nonzero;stroke:none;stroke-width:0.264583"
       d="m 54.306625,21.012565 h -0.352778 v 0.70556 h 0.352778 v -0.35278 h 0.352778 v -1.05833 h -0.352778 z"
       id="path1571" />
    <path
       style="fill:#6661a3;fill-opacity:1;fill-rule:nonzero;stroke:none;stroke-width:0.264583"
       d="m 53.953847,18.190345 h 0.352778 v -0.35278 h -0.352778 z"
       id="path1573" />
    <path
       style="fill:#4d3981;fill-opacity:1;fill-rule:nonzero;stroke:none;stroke-width:0.264583"
       d="m 41.253847,17.484795 v 0.35277 H 40.90107 v 0.35278 h -0.352778 v 0.35278 h -0.352778 v 3.88055 h 12.347222 v -0.35277 h 0.705556 v -0.35278 h 0.705555 v -0.70556 h 0.352778 v -0.70555 h 0.352778 v -2.82222 z m 0,4.58611 v -0.35278 H 40.90107 v 0.35278 h -0.352778 v -0.35278 h 0.352778 v -0.35278 h 0.352777 v 0.35278 h 0.352778 v 0.35278 z m 13.052778,-3.88056 h -0.352778 v 0.35278 h -0.352778 v -0.35278 h -0.352777 v -0.35278 h 0.352777 v 0.35278 h 0.352778 v -0.35278 h 0.352778 z"
       id="path1575" />
    <path
       style="fill:#6661a3;fill-opacity:1;fill-rule:nonzero;stroke:none;stroke-width:0.264583"
       d="m 53.601069,18.543125 h 0.352778 v -0.35278 h -0.352778 z"
       id="path1577" />
    <path
       style="fill:#6661a3;fill-opacity:1;fill-rule:nonzero;stroke:none;stroke-width:0.264583"
       d="m 53.248292,21.718125 v 0.35278 h -0.705556 v 0.35277 h 1.058333 v -0.35277 h 0.352778 v -0.35278 z"
       id="path1579" />
    <path
       style="fill:#6661a3;fill-opacity:1;fill-rule:nonzero;stroke:none;stroke-width:0.264583"
       d="m 53.248292,17.837565 v 0.35278 h 0.352777 v -0.35278 z"
       id="path1581" />
    <path
       style="fill:#6661a3;fill-opacity:1;fill-rule:nonzero;stroke:none;stroke-width:0.264583"
       d="m 41.253847,21.718125 v 0.35278 h 0.352778 v -0.35278 z"
       id="path1583" />
    <path
       style="fill:#6661a3;fill-opacity:1;fill-rule:nonzero;stroke:none;stroke-width:0.264583"
       d="m 40.90107,21.365345 v 0.35278 h 0.352777 v -0.35278 z"
       id="path1585" />
    <path
       style="fill:#6661a3;fill-opacity:1;fill-rule:nonzero;stroke:none;stroke-width:0.264583"
       d="m 40.548292,22.070905 h 0.352778 v -0.35278 h -0.352778 z"
       id="path1587" />
    <path
       style="fill:#6661a3;fill-opacity:1;fill-rule:nonzero;stroke:none;stroke-width:0.264583"
       d="m 40.548292,18.190345 h 0.352778 v -0.35278 h 0.352777 v -0.35277 h -1.058333 v 1.05833 h 0.352778 z"
       id="path1589" />
  </g>
</svg>
